<svg xmlns="http://www.w3.org/2000/svg" viewBox="0 0 180
 180" fill="none">
    <path d="M90 0C72.1997 -2.12267e-07 54.7991 5.27841 39.9987 15.1677C25.1983 25.0571 13.6627 39.1131 6.85084 55.5585C0.0389552 72.0038 -1.74335 90.0998 1.72932 107.558C5.20199 125.016 13.7737 141.053 26.3604 153.64C38.9471 166.226 54.9836 174.798 72.4419 178.271C89.9002 181.743 107.996 179.961 124.442 173.149C140.887 166.337 154.943 154.802 164.832 140.001C174.722 125.201 180 107.8 180 90H162C162 104.24 157.777 118.161 149.866 130.001C141.954 141.841 130.709 151.07 117.553 156.519C104.397 161.969 89.9201 163.395 75.9535 160.617C61.9869 157.838 49.1577 150.981 39.0883 140.912C29.0189 130.842 22.1616 118.013 19.3835 104.047C16.6053 90.0799 18.0312 75.6031 23.4807 62.4468C28.9302 49.2905 38.1586 38.0456 49.9989 30.1342C61.8393 22.2227 75.7597 18 90 18L90 0Z"
          fill="#3C82F6"></path>
    <rect x="109" width="67.8676" height="19.6615" fill="#3C82F6"></rect>
    <rect x="161.206" width="18.7941" height="71" fill="#3C82F6"></rect>
    <rect x="45" y="76" width="20" height="54" fill="#3C82F6"></rect>
    <rect x="80" y="90" width="20" height="40" fill="#3C82F6"></rect>
    <rect x="115" y="53" width="20" height="77" fill="#3C82F6"></rect>
</svg>