<svg xmlns="http://www.w3.org/2000/svg" viewBox="0 0 1079 180" fill="none" class="h-7 w-auto">
    <path d="M90 0C72.1997 -2.12267e-07 54.7991 5.27841 39.9987 15.1677C25.1983 25.0571 13.6627 39.1131 6.85084 55.5585C0.0389552 72.0038 -1.74335 90.0998 1.72932 107.558C5.20199 125.016 13.7737 141.053 26.3604 153.64C38.9471 166.226 54.9836 174.798 72.4419 178.271C89.9002 181.743 107.996 179.961 124.442 173.149C140.887 166.337 154.943 154.802 164.832 140.001C174.722 125.201 180 107.8 180 90H162C162 104.24 157.777 118.161 149.866 130.001C141.954 141.841 130.709 151.07 117.553 156.519C104.397 161.969 89.9201 163.395 75.9535 160.617C61.9869 157.838 49.1577 150.981 39.0883 140.912C29.0189 130.842 22.1616 118.013 19.3835 104.047C16.6053 90.0799 18.0312 75.6031 23.4807 62.4468C28.9302 49.2905 38.1586 38.0456 49.9989 30.1342C61.8393 22.2227 75.7597 18 90 18L90 0Z"
          fill="#3C82F6"></path>
    <rect x="109" width="67.8676" height="19.6615" fill="#3C82F6"></rect>
    <rect x="161.206" width="18.7941" height="71" fill="#3C82F6"></rect>
    <rect x="45" y="76" width="20" height="54" fill="#3C82F6"></rect>
    <rect x="80" y="90" width="20" height="40" fill="#3C82F6"></rect>
    <rect x="115" y="53" width="20" height="77" fill="#3C82F6"></rect>
    <path d="M283.864 119H251.605V31.7273H283.821C292.713 31.7273 300.369 33.4744 306.79 36.9688C313.239 40.4347 318.21 45.4347 321.705 51.9688C325.199 58.4744 326.946 66.2585 326.946 75.321C326.946 84.4119 325.199 92.2244 321.705 98.7585C318.239 105.293 313.281 110.307 306.832 113.801C300.384 117.267 292.727 119 283.864 119ZM272.699 101.017H283.054C287.94 101.017 292.074 100.193 295.455 98.5455C298.864 96.8693 301.435 94.1562 303.168 90.4062C304.929 86.6278 305.81 81.5994 305.81 75.321C305.81 69.0426 304.929 64.0426 303.168 60.321C301.406 56.571 298.807 53.8722 295.369 52.2244C291.96 50.5483 287.756 49.7102 282.756 49.7102H272.699V101.017ZM339.261 119V53.5455H360.099V119H339.261ZM349.702 45.9176C346.776 45.9176 344.261 44.9517 342.159 43.0199C340.057 41.0597 339.006 38.7017 339.006 35.946C339.006 33.2187 340.057 30.8892 342.159 28.9574C344.261 26.9972 346.776 26.017 349.702 26.017C352.656 26.017 355.17 26.9972 357.244 28.9574C359.347 30.8892 360.398 33.2187 360.398 35.946C360.398 38.7017 359.347 41.0597 357.244 43.0199C355.17 44.9517 352.656 45.9176 349.702 45.9176ZM430.508 73.5312L411.374 74.0426C411.175 72.679 410.636 71.4716 409.755 70.4205C408.874 69.3409 407.724 68.5028 406.303 67.9062C404.911 67.2812 403.292 66.9688 401.445 66.9688C399.031 66.9688 396.971 67.4517 395.266 68.4176C393.59 69.3835 392.766 70.6903 392.795 72.3381C392.766 73.6165 393.278 74.7244 394.329 75.6619C395.408 76.5994 397.326 77.3523 400.082 77.9205L412.695 80.3068C419.229 81.5568 424.087 83.6307 427.269 86.5284C430.479 89.4261 432.099 93.2614 432.127 98.0341C432.099 102.523 430.763 106.429 428.121 109.753C425.508 113.077 421.928 115.662 417.383 117.509C412.837 119.327 407.638 120.236 401.786 120.236C392.44 120.236 385.067 118.318 379.67 114.483C374.3 110.619 371.232 105.449 370.465 98.9716L391.048 98.4602C391.502 100.847 392.681 102.665 394.585 103.915C396.488 105.165 398.917 105.79 401.871 105.79C404.542 105.79 406.715 105.293 408.391 104.298C410.067 103.304 410.92 101.983 410.948 100.335C410.92 98.858 410.266 97.679 408.988 96.7983C407.71 95.8892 405.707 95.179 402.979 94.6676L391.559 92.4943C384.996 91.3011 380.11 89.0994 376.9 85.8892C373.69 82.6506 372.099 78.5312 372.127 73.5312C372.099 69.1562 373.263 65.4205 375.621 62.3239C377.979 59.1989 381.332 56.8125 385.678 55.1648C390.025 53.517 395.153 52.6932 401.062 52.6932C409.925 52.6932 416.914 54.554 422.028 58.2756C427.141 61.9687 429.968 67.054 430.508 73.5312ZM442.386 143.545V53.5455H463.011V64.7528H463.651C464.503 62.7642 465.71 60.8466 467.273 59C468.864 57.1534 470.881 55.6477 473.324 54.483C475.795 53.2898 478.75 52.6932 482.188 52.6932C486.733 52.6932 490.98 53.8864 494.929 56.2727C498.906 58.6591 502.116 62.3381 504.56 67.3097C507.003 72.2812 508.224 78.6165 508.224 86.3153C508.224 93.7301 507.045 99.9375 504.688 104.938C502.358 109.938 499.205 113.688 495.227 116.188C491.278 118.688 486.889 119.938 482.06 119.938C478.764 119.938 475.909 119.398 473.494 118.318C471.08 117.239 469.048 115.818 467.401 114.057C465.781 112.295 464.531 110.406 463.651 108.389H463.224V143.545H442.386ZM462.798 86.2727C462.798 89.7955 463.267 92.8636 464.205 95.4773C465.17 98.0909 466.548 100.122 468.338 101.571C470.156 102.991 472.33 103.702 474.858 103.702C477.415 103.702 479.588 102.991 481.378 101.571C483.168 100.122 484.517 98.0909 485.426 95.4773C486.364 92.8636 486.832 89.7955 486.832 86.2727C486.832 82.75 486.364 79.696 485.426 77.1108C484.517 74.5256 483.168 72.5227 481.378 71.1023C479.616 69.6818 477.443 68.9716 474.858 68.9716C472.301 68.9716 470.128 69.6676 468.338 71.0597C466.548 72.4517 465.17 74.4403 464.205 77.0256C463.267 79.6108 462.798 82.6932 462.798 86.2727ZM561.374 90.7472V53.5455H582.17V119H562.312V106.812H561.63C560.181 110.818 557.71 114 554.215 116.358C550.749 118.687 546.559 119.852 541.644 119.852C537.184 119.852 533.263 118.83 529.883 116.784C526.502 114.739 523.874 111.884 521.999 108.219C520.124 104.526 519.173 100.207 519.144 95.2642V53.5455H539.982V91.1733C540.011 94.7244 540.948 97.5227 542.795 99.5682C544.641 101.614 547.156 102.636 550.337 102.636C552.411 102.636 554.272 102.182 555.92 101.273C557.596 100.335 558.917 98.9858 559.883 97.2244C560.877 95.4347 561.374 93.2756 561.374 90.7472ZM637.663 90.7472V53.5455H658.459V119H638.601V106.812H637.919C636.47 110.818 633.999 114 630.504 116.358C627.038 118.687 622.848 119.852 617.933 119.852C613.473 119.852 609.553 118.83 606.172 116.784C602.791 114.739 600.163 111.884 598.288 108.219C596.413 104.526 595.462 100.207 595.433 95.2642V53.5455H616.271V91.1733C616.3 94.7244 617.237 97.5227 619.084 99.5682C620.93 101.614 623.445 102.636 626.626 102.636C628.7 102.636 630.561 102.182 632.209 101.273C633.885 100.335 635.206 98.9858 636.172 97.2244C637.166 95.4347 637.663 93.2756 637.663 90.7472ZM708.668 53.5455V68.8864H667.376V53.5455H708.668ZM676.026 37.8636H696.864V98.4176C696.864 99.696 697.063 100.733 697.461 101.528C697.887 102.295 698.498 102.849 699.293 103.19C700.089 103.503 701.04 103.659 702.148 103.659C702.944 103.659 703.782 103.588 704.663 103.446C705.572 103.276 706.254 103.134 706.708 103.02L709.862 118.062C708.867 118.347 707.461 118.702 705.643 119.128C703.853 119.554 701.708 119.824 699.208 119.938C694.322 120.165 690.131 119.597 686.637 118.233C683.171 116.841 680.515 114.682 678.668 111.756C676.85 108.83 675.969 105.151 676.026 100.719V37.8636ZM749.151 120.236C742.276 120.236 736.367 118.83 731.424 116.017C726.509 113.176 722.717 109.227 720.046 104.17C717.404 99.0852 716.083 93.1903 716.083 86.4858C716.083 79.7528 717.404 73.858 720.046 68.8011C722.717 63.7159 726.509 59.767 731.424 56.9545C736.367 54.1136 742.276 52.6932 749.151 52.6932C756.026 52.6932 761.921 54.1136 766.836 56.9545C771.779 59.767 775.572 63.7159 778.214 68.8011C780.884 73.858 782.219 79.7528 782.219 86.4858C782.219 93.1903 780.884 99.0852 778.214 104.17C775.572 109.227 771.779 113.176 766.836 116.017C761.921 118.83 756.026 120.236 749.151 120.236ZM749.279 104.511C751.779 104.511 753.896 103.744 755.629 102.21C757.362 100.676 758.683 98.5455 759.592 95.8182C760.529 93.0909 760.998 89.9375 760.998 86.358C760.998 82.7216 760.529 79.5398 759.592 76.8125C758.683 74.0852 757.362 71.9545 755.629 70.4205C753.896 68.8864 751.779 68.1193 749.279 68.1193C746.694 68.1193 744.506 68.8864 742.717 70.4205C740.955 71.9545 739.606 74.0852 738.668 76.8125C737.759 79.5398 737.305 82.7216 737.305 86.358C737.305 89.9375 737.759 93.0909 738.668 95.8182C739.606 98.5455 740.955 100.676 742.717 102.21C744.506 103.744 746.694 104.511 749.279 104.511ZM813.732 81.6705V119H792.894V53.5455H812.71V65.5625H813.434C814.883 61.5568 817.354 58.4176 820.849 56.1449C824.343 53.8438 828.505 52.6932 833.335 52.6932C837.937 52.6932 841.928 53.7301 845.309 55.804C848.718 57.8494 851.36 60.7187 853.235 64.4119C855.138 68.0767 856.076 72.3665 856.048 77.2812V119H835.21V81.3722C835.238 77.7358 834.315 74.8949 832.44 72.8494C830.593 70.804 828.022 69.7812 824.727 69.7812C822.539 69.7812 820.607 70.2642 818.931 71.2301C817.283 72.1676 816.005 73.517 815.096 75.2784C814.215 77.0398 813.761 79.1705 813.732 81.6705ZM889.787 31.7273V119H868.949V31.7273H889.787ZM903.05 119V53.5455H923.888V119H903.05ZM913.491 45.9176C910.565 45.9176 908.05 44.9517 905.948 43.0199C903.846 41.0597 902.795 38.7017 902.795 35.946C902.795 33.2187 903.846 30.8892 905.948 28.9574C908.05 26.9972 910.565 26.017 913.491 26.017C916.445 26.017 918.96 26.9972 921.033 28.9574C923.136 30.8892 924.187 33.2187 924.187 35.946C924.187 38.7017 923.136 41.0597 921.033 43.0199C918.96 44.9517 916.445 45.9176 913.491 45.9176ZM957.99 81.6705V119H937.152V53.5455H956.967V65.5625H957.692C959.141 61.5568 961.612 58.4176 965.107 56.1449C968.601 53.8438 972.763 52.6932 977.592 52.6932C982.195 52.6932 986.186 53.7301 989.567 55.804C992.976 57.8494 995.618 60.7187 997.493 64.4119C999.396 68.0767 1000.33 72.3665 1000.31 77.2812V119H979.467V81.3722C979.496 77.7358 978.572 74.8949 976.697 72.8494C974.851 70.804 972.28 69.7812 968.984 69.7812C966.797 69.7812 964.865 70.2642 963.189 71.2301C961.541 72.1676 960.263 73.517 959.354 75.2784C958.473 77.0398 958.018 79.1705 957.99 81.6705ZM1043.8 120.236C1036.96 120.236 1031.05 118.886 1026.08 116.188C1021.13 113.46 1017.33 109.582 1014.66 104.554C1012.01 99.4972 1010.69 93.4886 1010.69 86.5284C1010.69 79.767 1012.03 73.858 1014.7 68.8011C1017.37 63.7159 1021.13 59.767 1025.99 56.9545C1030.85 54.1136 1036.57 52.6932 1043.16 52.6932C1047.82 52.6932 1052.08 53.4176 1055.95 54.8665C1059.81 56.3153 1063.15 58.4602 1065.96 61.3011C1068.77 64.142 1070.96 67.6506 1072.52 71.8267C1074.09 75.9744 1074.87 80.733 1074.87 86.1023V91.3011H1017.98V79.1989H1055.48C1055.45 76.983 1054.93 75.0085 1053.9 73.2756C1052.88 71.5426 1051.47 70.1932 1049.68 69.2273C1047.92 68.233 1045.89 67.7358 1043.59 67.7358C1041.26 67.7358 1039.17 68.2614 1037.33 69.3125C1035.48 70.3352 1034.02 71.7415 1032.94 73.5312C1031.86 75.2926 1031.29 77.2955 1031.23 79.5398V91.8551C1031.23 94.5256 1031.76 96.8693 1032.81 98.8864C1033.86 100.875 1035.35 102.423 1037.28 103.531C1039.22 104.639 1041.52 105.193 1044.19 105.193C1046.03 105.193 1047.71 104.937 1049.22 104.426C1050.72 103.915 1052.01 103.162 1053.09 102.168C1054.17 101.173 1054.98 99.9517 1055.52 98.5028L1074.66 99.0568C1073.86 103.347 1072.11 107.082 1069.41 110.264C1066.74 113.418 1063.24 115.875 1058.89 117.636C1054.54 119.369 1049.51 120.236 1043.8 120.236Z"
          fill="#1E293B"></path>
</svg>